<?xml version="1.0" encoding="utf-8"?>
<!-- Generator: Adobe Illustrator 18.0.0, SVG Export Plug-In . SVG Version: 6.00 Build 0)  -->
<!DOCTYPE svg PUBLIC "-//W3C//DTD SVG 1.1//EN" "http://www.w3.org/Graphics/SVG/1.1/DTD/svg11.dtd">
<svg version="1.1" id="Layer_1" xmlns="http://www.w3.org/2000/svg" xmlns:xlink="http://www.w3.org/1999/xlink" x="0px" y="0px"
	 viewBox="200 0 557.7 560" enable-background="new 200 0 557.7 560" xml:space="preserve">
<g>
	<g>
		<path fill="#FFFFFF" d="M478.9,560C324.7,560,200,433,200,278.9S324.7,0,478.9,0s278.9,124.7,278.9,278.9S633,560,478.9,560z
			 M478.9,45.3c-129.2,0-233.5,104.3-233.5,233.5s104.3,233.5,233.5,233.5s235.8-104.3,235.8-233.5S608.1,45.3,478.9,45.3z"/>
	</g>
	<g>
		<path fill="#FFFFFF" d="M447.1,383.2l-83.9-61.2c-9.1-6.8-11.3-22.7-4.5-31.7c6.8-9.1,20.4-11.3,31.7-4.5l49.9,36.3l120.2-129.2
			c9.1-9.1,22.7-9.1,31.7,0c9.1,9.1,9.1,22.7,0,31.7L447.1,383.2z"/>
	</g>
</g>
</svg>
