<?xml version="1.0" encoding="utf-8"?>
<!-- Generator: Adobe Illustrator 18.0.0, SVG Export Plug-In . SVG Version: 6.00 Build 0)  -->
<!DOCTYPE svg PUBLIC "-//W3C//DTD SVG 1.1//EN" "http://www.w3.org/Graphics/SVG/1.1/DTD/svg11.dtd">
<svg version="1.1" id="Layer_1" xmlns="http://www.w3.org/2000/svg" xmlns:xlink="http://www.w3.org/1999/xlink" x="0px" y="0px"
	 viewBox="200 0 557.7 560" enable-background="new 200 0 557.7 560" xml:space="preserve">
<g>
	<g>
		<path fill="#FFFFFF" d="M478.9,560C324.7,560,200,433,200,278.9S324.7,0,478.9,0s278.9,124.7,278.9,278.9S633,560,478.9,560z
			 M478.9,45.3c-129.2,0-233.5,104.3-233.5,233.5s104.3,233.5,233.5,233.5s235.8-104.3,235.8-233.5S608.1,45.3,478.9,45.3z"/>
	</g>
	<g>
		<g>
			<path fill="#FFFFFF" d="M549.1,365c-6.8,0-11.3-2.3-15.9-6.8L401.8,226.7c-9.1-9.1-9.1-22.7,0-31.7s22.7-9.1,31.7,0L565,326.5
				c9.1,9.1,9.1,22.7,0,31.7C560.5,362.8,553.7,365,549.1,365z"/>
		</g>
		<g>
			<path fill="#FFFFFF" d="M410.9,371.8c-6.8,0-11.3-2.3-15.9-6.8c-9.1-9.1-9.1-22.7,0-31.7L533.3,195c9.1-9.1,22.7-9.1,31.7,0
				c9.1,9.1,9.1,22.7,0,31.7L426.7,365C422.2,369.6,417.7,371.8,410.9,371.8z"/>
		</g>
	</g>
</g>
</svg>
